<mxfile host="Electron" modified="2024-08-15T18:14:38.898Z" agent="Mozilla/5.0 (Windows NT 10.0; Win64; x64) AppleWebKit/537.36 (KHTML, like Gecko) draw.io/21.2.1 Chrome/112.0.5615.87 Electron/24.1.2 Safari/537.36" etag="3lvSidRz0tcTLO3U_Ijg" version="21.2.1" type="device">
  <diagram name="Page-1" id="EZ5atA13jkNkH9cVtI_3">
    <mxGraphModel dx="993" dy="649" grid="1" gridSize="10" guides="1" tooltips="1" connect="1" arrows="1" fold="1" page="1" pageScale="1" pageWidth="850" pageHeight="1100" math="0" shadow="0">
      <root>
        <mxCell id="0" />
        <mxCell id="1" parent="0" />
        <mxCell id="8O3zFo9Mf4uh40ezH-HB-1" value="" style="image;aspect=fixed;html=1;points=[];align=center;fontSize=12;image=img/lib/azure2/compute/Automanaged_VM.svg;" vertex="1" parent="1">
          <mxGeometry x="131" y="230" width="54.84" height="50" as="geometry" />
        </mxCell>
        <mxCell id="8O3zFo9Mf4uh40ezH-HB-2" value="" style="image;aspect=fixed;html=1;points=[];align=center;fontSize=12;image=img/lib/azure2/compute/Automanaged_VM.svg;" vertex="1" parent="1">
          <mxGeometry x="269" y="230" width="54.84" height="50" as="geometry" />
        </mxCell>
        <mxCell id="8O3zFo9Mf4uh40ezH-HB-3" value="" style="endArrow=none;dashed=1;html=1;rounded=0;" edge="1" parent="1">
          <mxGeometry width="50" height="50" relative="1" as="geometry">
            <mxPoint x="101" y="200" as="sourcePoint" />
            <mxPoint x="101" y="200" as="targetPoint" />
            <Array as="points">
              <mxPoint x="211" y="200" />
              <mxPoint x="211" y="310" />
              <mxPoint x="101" y="310" />
            </Array>
          </mxGeometry>
        </mxCell>
        <mxCell id="8O3zFo9Mf4uh40ezH-HB-4" value="" style="endArrow=none;dashed=1;html=1;rounded=0;" edge="1" parent="1">
          <mxGeometry width="50" height="50" relative="1" as="geometry">
            <mxPoint x="241" y="200" as="sourcePoint" />
            <mxPoint x="241" y="200" as="targetPoint" />
            <Array as="points">
              <mxPoint x="351" y="200" />
              <mxPoint x="351" y="310" />
              <mxPoint x="241" y="310" />
            </Array>
          </mxGeometry>
        </mxCell>
        <mxCell id="8O3zFo9Mf4uh40ezH-HB-5" value="" style="endArrow=none;dashed=1;html=1;rounded=0;" edge="1" parent="1">
          <mxGeometry width="50" height="50" relative="1" as="geometry">
            <mxPoint x="91" y="160" as="sourcePoint" />
            <mxPoint x="391" y="360" as="targetPoint" />
            <Array as="points">
              <mxPoint x="391" y="160" />
            </Array>
          </mxGeometry>
        </mxCell>
        <mxCell id="8O3zFo9Mf4uh40ezH-HB-10" value="" style="image;aspect=fixed;html=1;points=[];align=center;fontSize=12;image=img/lib/azure2/networking/Virtual_Networks.svg;" vertex="1" parent="1">
          <mxGeometry x="97.5" y="190" width="33.5" height="20" as="geometry" />
        </mxCell>
        <mxCell id="8O3zFo9Mf4uh40ezH-HB-11" value="" style="image;aspect=fixed;html=1;points=[];align=center;fontSize=12;image=img/lib/azure2/networking/Virtual_Networks.svg;" vertex="1" parent="1">
          <mxGeometry x="235.5" y="190" width="33.5" height="20" as="geometry" />
        </mxCell>
        <mxCell id="8O3zFo9Mf4uh40ezH-HB-13" value="" style="endArrow=none;dashed=1;html=1;rounded=0;entryX=0.209;entryY=0.5;entryDx=0;entryDy=0;entryPerimeter=0;" edge="1" parent="1" target="8O3zFo9Mf4uh40ezH-HB-12">
          <mxGeometry width="50" height="50" relative="1" as="geometry">
            <mxPoint x="391" y="360" as="sourcePoint" />
            <mxPoint x="71" y="180" as="targetPoint" />
            <Array as="points">
              <mxPoint x="71" y="360" />
            </Array>
          </mxGeometry>
        </mxCell>
        <mxCell id="8O3zFo9Mf4uh40ezH-HB-12" value="" style="image;aspect=fixed;html=1;points=[];align=center;fontSize=12;image=img/lib/azure2/networking/Virtual_Networks.svg;" vertex="1" parent="1">
          <mxGeometry x="64" y="150" width="33.5" height="20" as="geometry" />
        </mxCell>
        <mxCell id="8O3zFo9Mf4uh40ezH-HB-17" value="" style="endArrow=none;dashed=1;html=1;rounded=0;" edge="1" parent="1" source="8O3zFo9Mf4uh40ezH-HB-22">
          <mxGeometry width="50" height="50" relative="1" as="geometry">
            <mxPoint x="523" y="360" as="sourcePoint" />
            <mxPoint x="523" y="360" as="targetPoint" />
            <Array as="points">
              <mxPoint x="523" y="160" />
            </Array>
          </mxGeometry>
        </mxCell>
        <mxCell id="8O3zFo9Mf4uh40ezH-HB-18" value="" style="endArrow=none;dashed=1;html=1;rounded=0;" edge="1" parent="1" source="8O3zFo9Mf4uh40ezH-HB-19">
          <mxGeometry width="50" height="50" relative="1" as="geometry">
            <mxPoint x="560" y="200" as="sourcePoint" />
            <mxPoint x="560" y="200" as="targetPoint" />
            <Array as="points">
              <mxPoint x="670" y="200" />
              <mxPoint x="670" y="310" />
              <mxPoint x="560" y="310" />
            </Array>
          </mxGeometry>
        </mxCell>
        <mxCell id="8O3zFo9Mf4uh40ezH-HB-20" value="" style="endArrow=none;dashed=1;html=1;rounded=0;" edge="1" parent="1" target="8O3zFo9Mf4uh40ezH-HB-19">
          <mxGeometry width="50" height="50" relative="1" as="geometry">
            <mxPoint x="560" y="200" as="sourcePoint" />
            <mxPoint x="560" y="200" as="targetPoint" />
            <Array as="points" />
          </mxGeometry>
        </mxCell>
        <mxCell id="8O3zFo9Mf4uh40ezH-HB-19" value="" style="image;aspect=fixed;html=1;points=[];align=center;fontSize=12;image=img/lib/azure2/networking/Virtual_Networks.svg;" vertex="1" parent="1">
          <mxGeometry x="550" y="190" width="33.5" height="20" as="geometry" />
        </mxCell>
        <mxCell id="8O3zFo9Mf4uh40ezH-HB-21" value="" style="image;aspect=fixed;html=1;points=[];align=center;fontSize=12;image=img/lib/azure2/compute/Automanaged_VM.svg;" vertex="1" parent="1">
          <mxGeometry x="589" y="229" width="54.84" height="50" as="geometry" />
        </mxCell>
        <mxCell id="8O3zFo9Mf4uh40ezH-HB-23" value="" style="endArrow=none;dashed=1;html=1;rounded=0;" edge="1" parent="1" target="8O3zFo9Mf4uh40ezH-HB-22">
          <mxGeometry width="50" height="50" relative="1" as="geometry">
            <mxPoint x="523" y="360" as="sourcePoint" />
            <mxPoint x="523" y="360" as="targetPoint" />
            <Array as="points">
              <mxPoint x="713" y="360" />
              <mxPoint x="713" y="230" />
              <mxPoint x="713" y="160" />
              <mxPoint x="623" y="160" />
            </Array>
          </mxGeometry>
        </mxCell>
        <mxCell id="8O3zFo9Mf4uh40ezH-HB-22" value="" style="image;aspect=fixed;html=1;points=[];align=center;fontSize=12;image=img/lib/azure2/networking/Virtual_Networks.svg;" vertex="1" parent="1">
          <mxGeometry x="520" y="150" width="33.5" height="20" as="geometry" />
        </mxCell>
        <mxCell id="8O3zFo9Mf4uh40ezH-HB-24" value="Vnet 10.10.0.0/16" style="text;html=1;strokeColor=none;fillColor=none;align=center;verticalAlign=middle;whiteSpace=wrap;rounded=0;" vertex="1" parent="1">
          <mxGeometry x="90" y="130" width="120" height="30" as="geometry" />
        </mxCell>
        <mxCell id="8O3zFo9Mf4uh40ezH-HB-26" value="Sb1 10.10.1.0/24" style="text;html=1;strokeColor=none;fillColor=none;align=center;verticalAlign=middle;whiteSpace=wrap;rounded=0;" vertex="1" parent="1">
          <mxGeometry x="98.42000000000002" y="170" width="120" height="30" as="geometry" />
        </mxCell>
        <mxCell id="8O3zFo9Mf4uh40ezH-HB-27" value="Vnet 10.22.0.0/16" style="text;html=1;strokeColor=none;fillColor=none;align=center;verticalAlign=middle;whiteSpace=wrap;rounded=0;" vertex="1" parent="1">
          <mxGeometry x="550" y="131" width="120" height="30" as="geometry" />
        </mxCell>
        <mxCell id="8O3zFo9Mf4uh40ezH-HB-28" value="Sb2 10.10.2.0/24" style="text;html=1;strokeColor=none;fillColor=none;align=center;verticalAlign=middle;whiteSpace=wrap;rounded=0;" vertex="1" parent="1">
          <mxGeometry x="236.42000000000002" y="180" width="120" height="10" as="geometry" />
        </mxCell>
        <mxCell id="8O3zFo9Mf4uh40ezH-HB-29" value="Sb310.22.1.0/24" style="text;html=1;strokeColor=none;fillColor=none;align=center;verticalAlign=middle;whiteSpace=wrap;rounded=0;" vertex="1" parent="1">
          <mxGeometry x="570" y="170" width="120" height="30" as="geometry" />
        </mxCell>
        <mxCell id="8O3zFo9Mf4uh40ezH-HB-30" value="" style="endArrow=none;dashed=1;html=1;dashPattern=1 3;strokeWidth=2;rounded=0;" edge="1" parent="1" source="8O3zFo9Mf4uh40ezH-HB-31">
          <mxGeometry width="50" height="50" relative="1" as="geometry">
            <mxPoint x="760" y="400" as="sourcePoint" />
            <mxPoint x="760" y="400" as="targetPoint" />
            <Array as="points">
              <mxPoint x="40" y="80" />
              <mxPoint x="760" y="80" />
            </Array>
          </mxGeometry>
        </mxCell>
        <mxCell id="8O3zFo9Mf4uh40ezH-HB-32" value="" style="endArrow=none;dashed=1;html=1;dashPattern=1 3;strokeWidth=2;rounded=0;" edge="1" parent="1">
          <mxGeometry width="50" height="50" relative="1" as="geometry">
            <mxPoint x="760" y="400" as="sourcePoint" />
            <mxPoint x="40" y="80" as="targetPoint" />
            <Array as="points">
              <mxPoint x="40" y="400" />
            </Array>
          </mxGeometry>
        </mxCell>
        <mxCell id="8O3zFo9Mf4uh40ezH-HB-31" value="" style="verticalLabelPosition=bottom;html=1;verticalAlign=top;align=center;strokeColor=none;fillColor=#00BEF2;shape=mxgraph.azure.cloud;" vertex="1" parent="1">
          <mxGeometry x="47.5" y="60" width="50" height="32.5" as="geometry" />
        </mxCell>
        <mxCell id="8O3zFo9Mf4uh40ezH-HB-33" value="" style="endArrow=classic;startArrow=block;html=1;fillColor=#d5e8d4;strokeColor=#82b366;startFill=1;shadow=0;curved=1;" edge="1" parent="1">
          <mxGeometry width="50" height="50" relative="1" as="geometry">
            <mxPoint x="340" y="250" as="sourcePoint" />
            <mxPoint x="570" y="250" as="targetPoint" />
            <Array as="points">
              <mxPoint x="460" y="250" />
            </Array>
          </mxGeometry>
        </mxCell>
        <mxCell id="8O3zFo9Mf4uh40ezH-HB-34" value="" style="endArrow=classic;html=1;rounded=0;fillColor=#d5e8d4;strokeColor=#82b366;" edge="1" parent="1">
          <mxGeometry width="50" height="50" relative="1" as="geometry">
            <mxPoint x="460" y="250" as="sourcePoint" />
            <mxPoint x="190" y="290" as="targetPoint" />
            <Array as="points">
              <mxPoint x="460" y="290" />
            </Array>
          </mxGeometry>
        </mxCell>
        <mxCell id="8O3zFo9Mf4uh40ezH-HB-35" value="Complete&lt;br&gt;Peering&lt;br&gt;Connection" style="text;html=1;strokeColor=none;fillColor=none;align=center;verticalAlign=middle;whiteSpace=wrap;rounded=0;" vertex="1" parent="1">
          <mxGeometry x="425" y="200" width="60" height="40" as="geometry" />
        </mxCell>
      </root>
    </mxGraphModel>
  </diagram>
</mxfile>
